<svg width="30" height="30" viewBox="0 0 30 30" fill="none" xmlns="http://www.w3.org/2000/svg">
<path d="M4.40948 26.7475L2.05307 0.316772H27.9468L25.5881 26.7435L14.9842 29.6833L4.40948 26.7475Z" fill="#1572B6"/>
<path d="M15.0002 27.4365L23.5687 25.0608L25.5846 2.47787H15.0002V27.4365Z" fill="#33A9DC"/>
<path d="M15.0002 12.0536H19.2898L19.586 8.73412H15.0002V5.49248H23.1288L23.051 6.36224L22.2541 15.2952H15.0002V12.0536Z" fill="white"/>
<path d="M15.0194 20.4724L15.0051 20.4766L11.3951 19.5018L11.1642 16.9164H7.91061L8.3646 22.0064L15.0047 23.8493L15.0194 23.845V20.4724Z" fill="#EBEBEB"/>
<path d="M19.0141 15.1582L18.6237 19.4993L15.0082 20.4752V23.8479L21.6537 22.0062L21.7024 21.4584L22.2663 15.1582H19.0141Z" fill="white"/>
<path d="M15.0112 5.49248V8.73412H7.18122L7.11629 8.00568L6.96864 6.36224L6.89106 5.49248H15.0112ZM15.0002 12.054V15.2957H11.4356L11.3707 14.5672L11.2228 12.9238L11.1454 12.054H15.0002Z" fill="#EBEBEB"/>
</svg>
