<svg width="40" height="40" viewBox="0 0 40 40" fill="none" xmlns="http://www.w3.org/2000/svg">
<path d="M4.71594 13.0125H6.90344V23.1384C5.78156 23.3516 4.9575 23.4369 4.06281 23.4369C1.39219 23.4369 0 22.2294 0 19.9137C0 17.6837 1.4775 16.235 3.76437 16.235C4.11937 16.235 4.38937 16.2631 4.71594 16.3484V13.0125ZM4.71594 18.1094C4.46031 18.0244 4.24719 17.9959 3.9775 17.9959C2.86937 17.9959 2.23031 18.6778 2.23031 19.8709C2.23031 21.0356 2.84094 21.675 3.96312 21.675C4.20469 21.675 4.40375 21.6606 4.71625 21.6181L4.71594 18.1094Z" fill="white"/>
<path d="M10.3834 16.3906V21.4619C10.3834 23.2088 10.2556 24.0469 9.87218 24.7713C9.51687 25.4678 9.04812 25.9078 8.08218 26.3909L6.05093 25.425C7.01687 24.9703 7.48531 24.5728 7.78375 23.9619C8.09625 23.3369 8.19625 22.6125 8.19625 20.7088V16.3906H10.3834ZM8.19593 13.0241H10.3834V15.2684H8.19593V13.0241ZM11.705 16.8878C12.6706 16.4334 13.5941 16.2347 14.6028 16.2347C15.7247 16.2347 16.4634 16.5328 16.7903 17.1153C16.9747 17.4419 17.0316 17.8681 17.0316 18.7772V23.2231C16.0516 23.3653 14.8159 23.4647 13.9066 23.4647C12.0744 23.4647 11.2503 22.8253 11.2503 21.405C11.2503 19.8706 12.3441 19.1606 15.0287 18.9331V18.4503C15.0287 18.0525 14.83 17.9106 14.2759 17.9106C13.4666 17.9106 12.5572 18.1378 11.7047 18.5784V16.8878H11.705ZM15.1281 20.3681C13.6794 20.51 13.2106 20.7375 13.2106 21.3056C13.2106 21.7316 13.4806 21.9306 14.0772 21.9306C14.4037 21.9306 14.7022 21.9025 15.1281 21.8313V20.3681ZM18.0975 16.7316C19.39 16.3909 20.4553 16.2347 21.535 16.2347C22.6572 16.2347 23.4669 16.49 23.95 16.9875C24.4047 17.4563 24.5466 17.9672 24.5466 19.0613V23.3509H22.3591V19.1469C22.3591 18.3088 22.0747 17.9963 21.2934 17.9963C20.9953 17.9963 20.7256 18.0244 20.285 18.1525V23.3513H18.0975V16.7316ZM25.3966 24.5441C26.1637 24.9419 26.9306 25.1266 27.7403 25.1266C29.1747 25.1266 29.7856 24.5441 29.7856 23.1519V23.1094C29.3597 23.3225 28.9334 23.4078 28.3653 23.4078C26.4475 23.4078 25.2259 22.1434 25.2259 20.1406C25.2259 17.6547 27.03 16.2484 30.2259 16.2484C31.1634 16.2484 32.03 16.3478 33.0812 16.5609L32.3322 18.1391C31.7497 18.0253 32.2853 18.1234 31.8453 18.0809V18.3084L31.8734 19.2316L31.8878 20.4247C31.9022 20.7231 31.9022 21.0216 31.9162 21.3197V21.9166C31.9162 23.7916 31.76 24.6719 31.2912 25.3963C30.6094 26.4619 29.4306 26.9875 27.7544 26.9875C26.9019 26.9875 26.1637 26.8594 25.3962 26.5613V24.5438L25.3966 24.5441ZM29.7434 18.0097H29.5159C29.09 17.9956 28.5928 18.1091 28.2516 18.3222C27.7262 18.6206 27.4562 19.1603 27.4562 19.9275C27.4562 21.0213 27.9959 21.6463 28.9619 21.6463C29.2603 21.6463 29.5019 21.5894 29.7856 21.5044V20.7513C29.7856 20.4959 29.7716 20.2116 29.7716 19.9134L29.7575 18.905L29.7431 18.1803V18.01L29.7434 18.0097ZM36.4772 16.2063C38.6647 16.2063 40 17.5841 40 19.8141C40 22.1013 38.6081 23.5359 36.3919 23.5359C34.2044 23.5359 32.855 22.1578 32.855 19.9422C32.855 17.6406 34.2472 16.2059 36.4772 16.2059V16.2063ZM36.4344 21.7744C37.2725 21.7744 37.77 21.0781 37.77 19.8709C37.77 18.6778 37.2869 17.9675 36.4491 17.9675C35.5822 17.9675 35.085 18.6638 35.085 19.8706C35.085 21.0784 35.5822 21.7744 36.4344 21.7744Z" fill="white"/>
</svg>
