<svg width="30" height="30" viewBox="0 0 30 30" fill="none" xmlns="http://www.w3.org/2000/svg">
<path d="M0.33 0.330002H29.67V29.6702H0.33V0.330002Z" fill="#F0DB4F"/>
<path d="M27.2688 22.6725C27.0539 21.334 26.1811 20.2097 23.5957 19.1613C22.6976 18.7486 21.6963 18.453 21.398 17.7724C21.292 17.3763 21.278 17.1532 21.345 16.9134C21.5374 16.1353 22.4662 15.8927 23.2024 16.1159C23.6766 16.2748 24.1254 16.6402 24.3961 17.223C25.6622 16.4032 25.6596 16.4086 26.5437 15.8452C26.22 15.3434 26.0473 15.1118 25.8354 14.8971C25.0739 14.0466 24.0363 13.6085 22.377 13.642L21.5126 13.7538C20.6843 13.9631 19.8949 14.3979 19.432 14.9808C18.0431 16.5567 18.4392 19.3148 20.1293 20.4499C21.7943 21.6996 24.2402 21.9839 24.5527 23.1525C24.8566 24.5831 23.5013 25.0463 22.1541 24.8817C21.1613 24.6752 20.6091 24.1706 20.0121 23.253C18.9134 23.8889 18.9134 23.8889 17.7837 24.5386C18.0516 25.1243 18.333 25.3894 18.7821 25.8968C20.9074 28.0526 26.2259 27.9466 27.1798 24.6837C27.2184 24.5716 27.4753 23.8245 27.2688 22.6725ZM16.2802 13.8148H13.5359L13.5246 20.9098C13.5246 22.4187 13.6027 23.802 13.3573 24.2259C12.9558 25.0598 11.9154 24.9565 11.4413 24.7948C10.9587 24.5576 10.7133 24.2203 10.429 23.7436C10.3509 23.6067 10.2923 23.5008 10.2727 23.4926L8.04141 24.859C8.41242 25.6205 8.95898 26.2814 9.65906 26.7108C10.7048 27.3384 12.1104 27.5309 13.5804 27.1934C14.5371 26.9147 15.3626 26.3374 15.7948 25.4588C16.4196 24.3068 16.2855 22.9125 16.2799 21.3703C16.294 18.8543 16.2802 16.3388 16.2802 13.8148Z" fill="#323330"/>
</svg>
