<svg width="30" height="30" viewBox="0 0 30 30" fill="none" xmlns="http://www.w3.org/2000/svg">
<path fill-rule="evenodd" clip-rule="evenodd" d="M20.6339 10.0341C21.0101 11.1223 21.281 12.2332 21.3701 13.3847C21.4807 14.8132 21.4301 16.2316 21.1289 17.6367C21.1207 17.6754 21.1034 17.7117 21.0905 17.7492C20.996 17.7494 20.8997 17.7377 20.8073 17.752C20.0271 17.8746 19.2476 18.0016 18.468 18.128C17.6623 18.2585 16.8553 18.3839 16.0509 18.5234C15.7659 18.5726 15.4132 18.5137 15.2981 18.908C15.2948 18.9187 15.262 18.9206 15.243 18.9267L15.282 16.571L15.2423 10.8869L15.6178 10.8225C16.2319 10.7219 16.8459 10.62 17.4605 10.5223C18.1938 10.4058 18.9279 10.2926 19.6617 10.1789C19.9854 10.1285 20.3095 10.0823 20.6339 10.0341Z" fill="#439934"/>
<path fill-rule="evenodd" clip-rule="evenodd" d="M14.4677 25.7939C14.0716 25.4534 13.6617 25.1278 13.282 24.7697C11.239 22.8427 9.74462 20.5746 9.00868 17.8402C8.80594 17.0876 8.67071 16.3228 8.62735 15.5452C8.59688 15.0009 8.55282 14.4518 8.59126 13.9104C8.69368 12.4704 8.9018 11.0442 9.32415 9.65719L9.34735 9.62485C9.38837 9.67946 9.44743 9.72774 9.46829 9.78938C9.88055 11.0034 10.2898 12.2184 10.6969 13.4341C11.9761 17.2545 13.2537 21.0757 14.535 24.8951C14.5601 24.9696 14.625 25.0308 14.6716 25.0981L14.4677 25.7939Z" fill="#45A538"/>
<path fill-rule="evenodd" clip-rule="evenodd" d="M20.6339 10.0341C20.3095 10.0823 19.9851 10.1285 19.6615 10.1784C18.9276 10.2921 18.1936 10.4053 17.4602 10.5218C16.8457 10.6195 16.2316 10.7215 15.6176 10.822L15.2421 10.8865L15.2393 10.6416C15.2269 10.4402 15.2055 10.2391 15.2032 10.0378C15.187 8.75391 15.1769 7.47 15.161 6.1861C15.1512 5.38242 15.1364 4.57899 15.12 3.77555C15.1099 3.27633 15.0991 2.77688 15.0766 2.27836C15.0644 2.01047 15.0213 1.74399 15.0037 1.4761C14.9939 1.32211 15.0075 1.16696 15.0105 1.01227C15.202 1.38328 15.3893 1.75711 15.5862 2.12531C15.8972 2.7075 16.3926 3.13641 16.8387 3.60446C18.6019 5.45414 19.8537 7.60477 20.6339 10.0341Z" fill="#46A037"/>
<path fill-rule="evenodd" clip-rule="evenodd" d="M15.2428 18.9265C15.2618 18.9204 15.2948 18.9185 15.2979 18.9077C15.413 18.5135 15.7657 18.5723 16.0507 18.5231C16.8551 18.3839 17.662 18.2583 18.4678 18.1277C19.2473 18.0014 20.0269 17.8744 20.8071 17.7518C20.8994 17.7373 20.9958 17.7492 21.0902 17.749C20.9444 18.2693 20.8296 18.8008 20.6447 19.3069C20.4347 19.8808 20.1806 20.441 19.9109 20.9901C19.507 21.8092 19.0072 22.5773 18.4219 23.2783C17.9721 23.8193 17.4708 24.3192 16.9683 24.813C16.6905 25.0861 16.3631 25.3085 16.0584 25.5539L15.9794 25.5L15.6949 25.2567L15.4005 24.6115C15.1995 23.8588 15.0898 23.0846 15.0738 22.3057L15.0792 22.1742L15.1193 21.6056C15.1327 21.4115 15.1505 21.2177 15.1587 21.0232C15.1889 20.3243 15.2152 19.6254 15.2428 18.9265Z" fill="#409433"/>
<path fill-rule="evenodd" clip-rule="evenodd" d="M15.2428 18.9265C15.2152 19.6254 15.1889 20.3243 15.1591 21.0234C15.1509 21.218 15.1331 21.4118 15.1198 21.6059L14.9405 21.6736C14.5423 20.5013 14.1438 19.3413 13.7541 18.1784C13.1095 16.2544 12.4727 14.3273 11.8291 12.4029C11.3093 10.8496 10.7859 9.29745 10.2588 7.74657C10.2342 7.67391 10.1634 7.61719 10.1142 7.55297L11.2617 5.44313C11.3011 5.51157 11.3531 5.57555 11.378 5.64915C11.9094 7.21995 12.4382 8.79167 12.9642 10.3643C13.6477 12.4104 14.3269 14.4581 15.0099 16.5045C15.037 16.5863 15.082 16.6617 15.1249 16.7534L15.282 16.5706L15.2428 18.9265Z" fill="#4FAA41"/>
<path fill-rule="evenodd" clip-rule="evenodd" d="M10.1144 7.55321C10.1637 7.61743 10.2342 7.67414 10.259 7.7468C10.7861 9.29769 11.3095 10.8498 11.8294 12.4031C12.473 14.3276 13.1098 16.2546 13.7543 18.1786C14.1438 19.3413 14.5423 20.5015 14.9407 21.6738L15.12 21.6061L15.0799 22.1747L15.0436 22.3057C14.9812 22.9282 14.9287 23.5521 14.8528 24.1732C14.8146 24.4845 14.7335 24.7901 14.6719 25.0983C14.6255 25.031 14.5603 24.9698 14.5352 24.8953C13.2539 21.0757 11.9763 17.2547 10.6971 13.4344C10.2901 12.2186 9.8806 11.0037 9.4685 9.78961C9.44764 9.72797 9.38881 9.67969 9.34756 9.62508L10.1144 7.55321Z" fill="#4AA73C"/>
<path fill-rule="evenodd" clip-rule="evenodd" d="M15.2817 16.5708L15.1247 16.7536C15.0818 16.662 15.0368 16.5863 15.0096 16.5047C14.3269 14.4584 13.6474 12.4106 12.964 10.3645C12.4379 8.79191 11.9092 7.22019 11.3777 5.64938C11.3531 5.57579 11.3011 5.51157 11.2615 5.44337L12.6806 3.57657C12.7254 3.63633 12.7891 3.68954 12.8123 3.7568C13.2063 4.91016 13.5968 6.06493 13.9849 7.2204C14.3475 8.29946 14.7047 9.38016 15.0715 10.4578C15.0961 10.53 15.1816 10.5811 15.2388 10.642L15.2416 10.887C15.2552 12.7812 15.2686 14.6761 15.2817 16.5708Z" fill="#57AE47"/>
<path fill-rule="evenodd" clip-rule="evenodd" d="M15.2393 10.6416C15.1821 10.5806 15.0966 10.5295 15.072 10.4573C14.7052 9.37968 14.348 8.29898 13.9854 7.21992C13.5973 6.06445 13.2068 4.90992 12.8128 3.75632C12.7896 3.68906 12.7259 3.63585 12.6811 3.57609C13.1426 3.12421 13.5898 2.65617 14.0698 2.22515C14.4966 1.84218 14.8397 1.43156 14.8554 0.826401C14.8561 0.801323 14.8692 0.776245 14.8894 0.705933L15.011 1.01203C15.008 1.16695 14.9941 1.32187 15.0042 1.47585C15.0218 1.74375 15.0649 2.01023 15.0771 2.27812C15.0996 2.77664 15.1104 3.27609 15.1205 3.77531C15.1366 4.57875 15.1514 5.38218 15.1615 6.18585C15.1772 7.46976 15.1875 8.75367 15.2037 10.0376C15.2055 10.2394 15.2266 10.4402 15.2393 10.6416Z" fill="#60B24F"/>
<path fill-rule="evenodd" clip-rule="evenodd" d="M14.6714 25.0981C14.733 24.7898 14.8141 24.484 14.8523 24.173C14.9285 23.5521 14.9808 22.928 15.0431 22.3055L15.0586 22.3031L15.0741 22.3057C15.09 23.0846 15.1997 23.8588 15.4008 24.6115C15.3595 24.6659 15.3012 24.7144 15.2794 24.7758C15.109 25.2563 14.9484 25.7405 14.7771 26.2209C14.7537 26.2866 14.6885 26.3377 14.6426 26.3953L14.4675 25.7939L14.6714 25.0981Z" fill="#A9AA88"/>
<path fill-rule="evenodd" clip-rule="evenodd" d="M14.6428 26.3956C14.6888 26.3379 14.7541 26.2868 14.7774 26.2212C14.9487 25.7407 15.1095 25.2567 15.2796 24.776C15.3014 24.7146 15.3595 24.6661 15.401 24.6117L15.6952 25.2572C15.637 25.3397 15.5569 25.414 15.5245 25.5059L14.9611 27.1603C14.9379 27.2266 14.8587 27.2735 14.8057 27.3295L14.6428 26.3956Z" fill="#B6B598"/>
<path fill-rule="evenodd" clip-rule="evenodd" d="M14.8057 27.3293C14.8589 27.2735 14.9379 27.2264 14.9611 27.1601L15.5245 25.5056C15.5566 25.414 15.637 25.3395 15.6951 25.257L15.9799 25.5C15.8423 25.6359 15.7659 25.793 15.8119 25.9915L15.7254 26.2746C15.686 26.3231 15.6291 26.3653 15.6096 26.4209C15.413 26.9841 15.2252 27.5503 15.0272 28.1135C15.0021 28.185 14.9325 28.241 14.8833 28.3038C14.8577 27.9788 14.8317 27.6544 14.8057 27.3293Z" fill="#C2C1A7"/>
<path fill-rule="evenodd" clip-rule="evenodd" d="M14.8835 28.3038C14.9325 28.2408 15.0021 28.1848 15.0274 28.1135C15.2255 27.5505 15.4132 26.9843 15.6099 26.4208C15.6293 26.3655 15.686 26.3231 15.7256 26.2746L15.6063 27.5742C15.5745 27.611 15.5283 27.6431 15.5131 27.686C15.3783 28.0643 15.2513 28.4454 15.116 28.8237C15.0881 28.9017 15.0347 28.9706 14.993 29.0435C14.9559 28.995 14.8896 28.9481 14.8866 28.8975C14.8746 28.7004 14.8828 28.5019 14.8835 28.3038Z" fill="#CECDB7"/>
<path fill-rule="evenodd" clip-rule="evenodd" d="M14.9927 29.0435C15.0345 28.9704 15.0879 28.9015 15.1158 28.8237C15.2513 28.4456 15.378 28.0645 15.5128 27.686C15.528 27.6431 15.5745 27.6112 15.6061 27.5742L15.6089 28.4273L15.3234 29.1595L14.9927 29.0435Z" fill="#DBDAC7"/>
<path fill-rule="evenodd" clip-rule="evenodd" d="M15.3234 29.1598L15.6089 28.4276L15.6677 29.2938L15.3234 29.1598Z" fill="#EBE9DC"/>
<path fill-rule="evenodd" clip-rule="evenodd" d="M15.8119 25.9917C15.7659 25.7932 15.8421 25.6359 15.9799 25.5002L16.0589 25.5541L15.8119 25.9917Z" fill="#CECDB7"/>
<path fill-rule="evenodd" clip-rule="evenodd" d="M15.0741 22.3059L15.0586 22.3034L15.0431 22.3057L15.0794 22.1747L15.0741 22.3059Z" fill="#4FAA41"/>
</svg>
