<svg width="30" height="30" viewBox="0 0 30 30" fill="none" xmlns="http://www.w3.org/2000/svg">
<path d="M14.8573 2.87062C13.8677 2.87531 12.9232 2.95945 12.0916 3.10664C9.64242 3.5393 9.19805 4.44492 9.19805 6.11531V8.32101H14.9855V9.05625H7.02586C5.34399 9.05625 3.87117 10.0671 3.41039 11.9909C2.87883 14.1952 2.85539 15.5709 3.41039 17.8727C3.82172 19.5862 4.80422 20.8069 6.48633 20.8069H8.47641V18.1627C8.47641 16.2523 10.129 14.5673 12.0919 14.5673H17.8727C19.482 14.5673 20.7663 13.2422 20.7663 11.6264V6.11555C20.7663 4.54687 19.4431 3.36867 17.8727 3.10687C16.878 2.94141 15.8466 2.86617 14.8573 2.87062ZM11.7274 4.64461C12.3251 4.64461 12.8135 5.14078 12.8135 5.75109C12.8135 6.35883 12.3253 6.85031 11.7274 6.85031C11.1274 6.85031 10.6416 6.35883 10.6416 5.75109C10.6413 5.14078 11.1274 4.64461 11.7274 4.64461Z" fill="url(#paint0_linear_2013_39)"/>
<path d="M21.488 9.05625V11.6264C21.488 13.6186 19.7986 15.2955 17.8725 15.2955H12.0916C10.5082 15.2955 9.19804 16.6509 9.19804 18.2367V23.748C9.19804 25.3162 10.5616 26.239 12.0916 26.6887C13.9235 27.2271 15.6804 27.3246 17.8725 26.6887C19.3294 26.2666 20.7661 25.4177 20.7661 23.748V21.5421H14.9855V20.8066H23.6602C25.342 20.8066 25.9692 19.6336 26.5542 17.8725C27.1584 16.0596 27.1324 14.3161 26.5542 11.9906C26.1384 10.316 25.3446 9.05602 23.6602 9.05602H21.488V9.05625ZM18.2365 23.0126C18.8367 23.0126 19.3226 23.5041 19.3226 24.1123C19.3226 24.7221 18.8365 25.2183 18.2365 25.2183C17.6388 25.2183 17.1506 24.7221 17.1506 24.1123C17.1506 23.5041 17.6388 23.0126 18.2365 23.0126Z" fill="url(#paint1_linear_2013_39)"/>
<path opacity="0.444" d="M22.8068 28.0305C22.8068 28.8609 19.3343 29.5343 15.0511 29.5343C10.7677 29.5343 7.29515 28.8609 7.29515 28.0305C7.29515 27.1999 10.7674 26.5266 15.0511 26.5266C19.3343 26.5266 22.8068 27.1997 22.8068 28.0305Z" fill="url(#paint2_radial_2013_39)"/>
<defs>
<linearGradient id="paint0_linear_2013_39" x1="2.42271" y1="3.5603" x2="15.7712" y2="14.9439" gradientUnits="userSpaceOnUse">
<stop stop-color="#5A9FD4"/>
<stop offset="1" stop-color="#306998"/>
</linearGradient>
<linearGradient id="paint1_linear_2013_39" x1="20.7935" y1="22.0201" x2="16.0065" y2="15.3071" gradientUnits="userSpaceOnUse">
<stop stop-color="#FFD43B"/>
<stop offset="1" stop-color="#FFE873"/>
</linearGradient>
<radialGradient id="paint2_radial_2013_39" cx="0" cy="0" r="1" gradientUnits="userSpaceOnUse" gradientTransform="translate(15.0197 27.9875) rotate(-90) scale(1.50429 6.61262)">
<stop stop-color="#B8B8B8" stop-opacity="0.498"/>
<stop offset="1" stop-color="#7F7F7F" stop-opacity="0"/>
</radialGradient>
</defs>
</svg>
